# Blender v2.91.0 OBJ File: ''
# www.blender.org
mtllib tryangle.mtl
o 平面
v -1.000000 0.730643 -0.975426
v 1.000000 0.730643 -0.975426
v -1.000000 0.730643 1.024574
v 1.000000 0.730643 1.024574
v -0.384468 0.292167 -0.359895
v 0.384468 0.292167 -0.359895
v -0.384468 0.292167 0.409042
v 0.384468 0.292167 0.409042
v 0.002807 0.006639 0.008399
vt 0.000000 0.000000
vt 0.000000 1.000000
vt 1.000000 1.000000
vt 1.000000 0.000000
vt 1.000000 1.000000
vt 1.000000 0.000000
vt 0.000000 0.000000
vt 0.000000 1.000000
vt 0.000000 0.000000
vt 0.000000 0.000000
vn 0.0000 1.0000 -0.0000
vn 0.5802 -0.8145 0.0000
vn -0.5802 -0.8145 0.0000
vn 0.0000 -0.8145 0.5802
vn 0.0000 -0.8145 -0.5802
vn 0.5990 -0.8007 0.0000
vn 0.0000 -0.8144 0.5804
vn 0.0000 -0.7903 -0.6127
vn -0.5934 -0.8049 0.0000
usemtl Material
s off
f 1/1/1 3/2/1 4/3/1 2/4/1
f 2/4/2 4/3/2 8/5/2 6/6/2
f 3/2/3 1/1/3 5/7/3 7/8/3
f 4/3/4 3/2/4 7/8/4 8/5/4
f 1/1/5 2/4/5 6/6/5 5/7/5
f 6/6/6 8/5/6 9/9/6
f 8/5/7 7/8/7 9/9/7
f 5/7/8 6/6/8 9/9/8
f 9/9/9 7/10/9 5/7/9
